<svg width="147" height="68" viewBox="0 0 147 68" fill="none" xmlns="http://www.w3.org/2000/svg">
    <g clip-path="url(#clip0_19_76)">
        <path d="M2.05275 62C1.39864 62 0.892671 61.808 0.534835 61.4241C0.176998 61.0407 3.8147e-06 60.5528 3.8147e-06 59.9621V16.9184C3.8147e-06 16.2709 0.176998 15.7526 0.534835 15.3692C0.892671 14.9858 1.40057 14.7933 2.05275 14.7933H6.5209C7.17373 14.7933 7.69381 14.9853 8.08115 15.3692C8.46592 15.7526 8.6583 16.2742 8.6583 16.9184V24.0916L32.5045 1.41508C32.7401 1.18225 33.1432 0.88689 33.7088 0.529008C34.2744 0.171126 35.0334 0 35.9866 0H40.8088C41.2859 0 41.7027 0.176336 42.0593 0.529008C42.4115 0.870949 42.603 1.31236 42.597 1.76802C42.597 2.24437 42.4777 2.62858 42.2392 2.92394L15.3408 28.9992C15.1565 29.19 15.055 29.4294 15.0532 29.6768C15.0515 29.9243 15.1496 30.1647 15.3312 30.3575L44.0293 58.988C44.3291 59.3496 44.4852 59.7839 44.4747 60.227C44.4814 60.6812 44.29 61.1212 43.9379 61.4611C43.583 61.819 43.1684 61.9951 42.6874 61.9951H37.6854C36.6715 61.9951 35.8991 61.8034 35.3614 61.4192C34.9471 61.1343 34.5592 60.8224 34.2013 60.4862L8.66311 35.5998V59.963C8.66311 60.5537 8.47073 61.041 8.08596 61.4249C7.70119 61.8089 7.18111 62.0008 6.52571 62.0008L2.05275 62Z" fill="white"/>
        <path d="M42.0622 0.529008C41.705 0.176885 41.2881 0.000548478 40.8117 0H35.9905C35.0369 0 34.2776 0.176336 33.7126 0.529008C33.147 0.88689 32.744 1.18225 32.5083 1.41508L8.66311 24.0916V16.9184C8.66311 16.2709 8.47073 15.7526 8.08596 15.3692C7.70119 14.9858 7.17886 14.7933 6.52571 14.7933H2.05275C1.39864 14.7933 0.892671 14.9853 0.534835 15.3692C0.176998 15.7526 3.8147e-06 16.2742 3.8147e-06 16.9184V32.5105C0.166417 32.7409 0.335715 32.9786 0.504052 33.2189C0.682977 33.3174 0.855721 33.424 1.02157 33.5381C0.943653 33.4706 0.920567 33.4418 1.06101 33.5381C1.26782 33.6755 1.46502 33.8285 1.67376 33.9643C2.05303 34.2088 2.44839 34.4346 2.85789 34.6405L2.93484 34.6775C2.96659 34.6899 3.00699 34.7063 3.03103 34.7129C3.46303 34.8704 3.90605 35.0048 4.35753 35.1152C4.51432 35.1539 4.67304 35.1835 4.83176 35.2148C5.22134 35.2329 5.60804 35.2674 6.0005 35.2551C6.07096 35.2542 6.1413 35.2498 6.21116 35.2419C6.2583 35.2345 6.29196 35.2329 6.34006 35.2279C6.63922 35.1588 6.92876 35.0634 7.22119 34.9811C7.35297 34.9063 7.48571 34.8347 7.61461 34.7541C8.04556 34.485 8.44091 34.1642 8.85261 33.868C9.00652 33.7413 9.16235 33.6154 9.31722 33.4887C9.72123 33.1596 42.2459 2.9297 42.2459 2.9297C42.4844 2.63434 42.6037 2.25013 42.6037 1.77378C42.6104 1.31571 42.4173 0.87194 42.0622 0.529008Z" fill="#B9EFE1"/>
    </g>
    <path d="M54.5867 62.096C53.2907 62.096 52.1467 61.816 51.1547 61.256C50.1627 60.68 49.3787 59.896 48.8027 58.904C48.2427 57.896 47.9627 56.744 47.9627 55.448C47.9627 54.136 48.2427 52.984 48.8027 51.992C49.3787 50.984 50.1627 50.2 51.1547 49.64C52.1467 49.064 53.2907 48.776 54.5867 48.776C55.8667 48.776 57.0027 49.064 57.9947 49.64C58.9867 50.2 59.7627 50.984 60.3227 51.992C60.8987 52.984 61.1867 54.136 61.1867 55.448C61.1867 56.744 60.9067 57.896 60.3467 58.904C59.7867 59.896 59.0107 60.68 58.0187 61.256C57.0267 61.816 55.8827 62.096 54.5867 62.096ZM54.5867 59.936C55.4187 59.936 56.1547 59.744 56.7947 59.36C57.4347 58.976 57.9307 58.448 58.2827 57.776C58.6507 57.104 58.8347 56.328 58.8347 55.448C58.8347 54.568 58.6507 53.792 58.2827 53.12C57.9307 52.432 57.4347 51.896 56.7947 51.512C56.1547 51.128 55.4187 50.936 54.5867 50.936C53.7547 50.936 53.0187 51.128 52.3787 51.512C51.7387 51.896 51.2347 52.432 50.8667 53.12C50.4987 53.792 50.3147 54.568 50.3147 55.448C50.3147 56.328 50.4987 57.104 50.8667 57.776C51.2347 58.448 51.7387 58.976 52.3787 59.36C53.0187 59.744 53.7547 59.936 54.5867 59.936ZM68.0874 62C67.8314 62 67.5914 61.928 67.3674 61.784C67.1594 61.624 67.0154 61.432 66.9354 61.208L63.3834 50.552C63.2554 50.056 63.2554 49.656 63.3834 49.352C63.5274 49.032 63.8314 48.872 64.2954 48.872C64.5994 48.872 64.8474 48.96 65.0394 49.136C65.2474 49.296 65.4154 49.576 65.5434 49.976L68.5674 59.432H67.7274L70.5834 49.784C70.6634 49.512 70.7994 49.296 70.9914 49.136C71.1834 48.96 71.4474 48.872 71.7834 48.872C72.1034 48.872 72.3594 48.96 72.5514 49.136C72.7594 49.296 72.8954 49.512 72.9594 49.784L75.2874 58.856H74.9274L77.7594 49.976C77.9834 49.24 78.3994 48.872 79.0074 48.872C79.4554 48.872 79.7594 49.032 79.9194 49.352C80.0794 49.656 80.0714 50.056 79.8954 50.552L76.3434 61.208C76.2794 61.432 76.1434 61.624 75.9354 61.784C75.7274 61.928 75.4874 62 75.2154 62C74.9594 62 74.7194 61.928 74.4954 61.784C74.2714 61.624 74.1274 61.432 74.0634 61.208L71.5914 52.064H71.8314L69.2394 61.208C69.1754 61.432 69.0314 61.624 68.8074 61.784C68.5994 61.928 68.3594 62 68.0874 62ZM88.4876 62.096C87.3196 62.096 86.2716 61.808 85.3436 61.232C84.4156 60.64 83.6796 59.848 83.1356 58.856C82.6076 57.848 82.3436 56.712 82.3436 55.448C82.3436 54.184 82.6316 53.048 83.2076 52.04C83.7996 51.032 84.5916 50.24 85.5836 49.664C86.5916 49.072 87.7196 48.776 88.9676 48.776C90.2156 48.776 91.3356 49.072 92.3276 49.664C93.3196 50.24 94.1036 51.032 94.6796 52.04C95.2716 53.048 95.5676 54.184 95.5676 55.448H94.6316C94.6316 56.712 94.3596 57.848 93.8156 58.856C93.2876 59.848 92.5596 60.64 91.6316 61.232C90.7036 61.808 89.6556 62.096 88.4876 62.096ZM88.9676 59.936C89.7836 59.936 90.5116 59.744 91.1516 59.36C91.7916 58.96 92.2956 58.424 92.6636 57.752C93.0316 57.064 93.2156 56.296 93.2156 55.448C93.2156 54.584 93.0316 53.816 92.6636 53.144C92.2956 52.456 91.7916 51.92 91.1516 51.536C90.5116 51.136 89.7836 50.936 88.9676 50.936C88.1676 50.936 87.4396 51.136 86.7836 51.536C86.1436 51.92 85.6316 52.456 85.2476 53.144C84.8796 53.816 84.6956 54.584 84.6956 55.448C84.6956 56.296 84.8796 57.064 85.2476 57.752C85.6316 58.424 86.1436 58.96 86.7836 59.36C87.4396 59.744 88.1676 59.936 88.9676 59.936ZM94.3436 62.024C93.9916 62.024 93.6956 61.912 93.4556 61.688C93.2316 61.448 93.1196 61.152 93.1196 60.8V57.128L93.5756 54.584L95.5676 55.448V60.8C95.5676 61.152 95.4476 61.448 95.2076 61.688C94.9836 61.912 94.6956 62.024 94.3436 62.024ZM101.395 67.616C101.043 67.616 100.747 67.496 100.507 67.256C100.283 67.032 100.171 66.744 100.171 66.392V55.448C100.187 54.184 100.483 53.048 101.059 52.04C101.635 51.032 102.419 50.24 103.411 49.664C104.403 49.072 105.523 48.776 106.771 48.776C108.035 48.776 109.163 49.072 110.155 49.664C111.147 50.24 111.931 51.032 112.507 52.04C113.099 53.048 113.395 54.184 113.395 55.448C113.395 56.712 113.123 57.848 112.579 58.856C112.051 59.848 111.323 60.64 110.395 61.232C109.467 61.808 108.419 62.096 107.251 62.096C106.307 62.096 105.435 61.904 104.635 61.52C103.851 61.12 103.179 60.584 102.619 59.912V66.392C102.619 66.744 102.507 67.032 102.283 67.256C102.059 67.496 101.763 67.616 101.395 67.616ZM106.771 59.936C107.587 59.936 108.315 59.744 108.955 59.36C109.595 58.96 110.099 58.424 110.467 57.752C110.851 57.064 111.043 56.296 111.043 55.448C111.043 54.584 110.851 53.816 110.467 53.144C110.099 52.456 109.595 51.92 108.955 51.536C108.315 51.136 107.587 50.936 106.771 50.936C105.971 50.936 105.243 51.136 104.587 51.536C103.947 51.92 103.443 52.456 103.075 53.144C102.707 53.816 102.523 54.584 102.523 55.448C102.523 56.296 102.707 57.064 103.075 57.752C103.443 58.424 103.947 58.96 104.587 59.36C105.243 59.744 105.971 59.936 106.771 59.936ZM123.478 62.096C122.31 62.096 121.262 61.808 120.334 61.232C119.406 60.64 118.67 59.848 118.126 58.856C117.598 57.848 117.334 56.712 117.334 55.448C117.334 54.184 117.622 53.048 118.198 52.04C118.79 51.032 119.582 50.24 120.574 49.664C121.582 49.072 122.71 48.776 123.958 48.776C125.206 48.776 126.326 49.072 127.318 49.664C128.31 50.24 129.094 51.032 129.67 52.04C130.262 53.048 130.558 54.184 130.558 55.448H129.622C129.622 56.712 129.35 57.848 128.806 58.856C128.278 59.848 127.55 60.64 126.622 61.232C125.694 61.808 124.646 62.096 123.478 62.096ZM123.958 59.936C124.774 59.936 125.502 59.744 126.142 59.36C126.782 58.96 127.286 58.424 127.654 57.752C128.022 57.064 128.206 56.296 128.206 55.448C128.206 54.584 128.022 53.816 127.654 53.144C127.286 52.456 126.782 51.92 126.142 51.536C125.502 51.136 124.774 50.936 123.958 50.936C123.158 50.936 122.43 51.136 121.774 51.536C121.134 51.92 120.622 52.456 120.238 53.144C119.87 53.816 119.686 54.584 119.686 55.448C119.686 56.296 119.87 57.064 120.238 57.752C120.622 58.424 121.134 58.96 121.774 59.36C122.43 59.744 123.158 59.936 123.958 59.936ZM129.334 62.024C128.982 62.024 128.686 61.912 128.446 61.688C128.222 61.448 128.11 61.152 128.11 60.8V57.128L128.566 54.584L130.558 55.448V60.8C130.558 61.152 130.438 61.448 130.198 61.688C129.974 61.912 129.686 62.024 129.334 62.024ZM137.513 67.76C137.353 67.76 137.161 67.712 136.937 67.616C136.233 67.296 136.041 66.792 136.361 66.104L143.681 49.568C144.001 48.896 144.505 48.704 145.193 48.992C145.913 49.296 146.113 49.8 145.793 50.504L138.449 67.016C138.257 67.512 137.945 67.76 137.513 67.76ZM140.345 61.472C140.041 61.6 139.753 61.616 139.481 61.52C139.225 61.408 139.017 61.2 138.857 60.896L133.361 50.456C133.201 50.152 133.177 49.864 133.289 49.592C133.417 49.304 133.633 49.096 133.937 48.968C134.241 48.84 134.529 48.832 134.801 48.944C135.073 49.04 135.281 49.24 135.425 49.544L140.681 59.984C140.841 60.288 140.897 60.584 140.849 60.872C140.817 61.144 140.649 61.344 140.345 61.472Z" fill="white"/>
    <defs>
        <clipPath id="clip0_19_76">
            <rect width="44.4747" height="62" fill="white"/>
        </clipPath>
    </defs>
</svg>
